# Blender v2.76 (sub 0) OBJ File: 'bike.blend'
# www.blender.org
mtllib bike_bike.mtl
o Cube
v -0.999999 -0.500000 -8.500000
v 1.000001 -0.500000 -8.500000
v 1.000000 -0.500000 8.500000
v -1.000001 -0.500000 8.499998
v -0.999999 7.000000 -5.000003
v 1.000001 7.000000 -4.999995
v -0.410326 -3.392539 -11.392540
v 0.410328 -3.392539 -11.392538
v 0.410328 -3.392539 -4.607459
v -0.410326 -3.392539 -4.607461
v -0.410326 3.392539 -11.392540
v 0.410329 3.392539 -11.392537
v 0.410328 3.392539 -4.607459
v -0.410326 3.392539 -4.607461
v -0.410327 -3.392539 4.607460
v 0.410327 -3.392539 4.607462
v 0.410327 -3.392539 11.392540
v -0.410328 -3.392539 11.392538
v -0.410327 3.392539 4.607460
v 0.410327 3.392539 4.607463
v 0.410327 3.392539 11.392541
v -0.410328 3.392539 11.392538
v -0.999999 0.500000 -8.500000
v -0.999999 6.000000 -5.000002
v 1.000001 0.500000 -8.499999
v 1.000001 6.000000 -4.999996
v 1.000000 0.500000 8.500000
v -1.000001 0.500000 8.499998
v -1.000000 -0.500000 7.499998
v -1.000000 0.500000 7.499999
v -0.999999 -0.500000 -7.500000
v -0.999999 7.000000 -3.000003
v -0.999999 6.000000 -3.000002
v -0.999999 0.500000 -7.500000
v -1.000000 -1.000000 -1.000001
v -0.999999 7.000000 1.999998
v -1.000000 6.000000 1.999998
v -1.000000 1.000000 -1.000001
v -1.000000 -1.000000 0.999998
v -1.000000 7.000000 3.499998
v -1.000000 6.000000 3.999998
v -1.000000 1.000000 0.999999
v 1.000000 -0.500000 7.500000
v 1.000000 0.500000 7.500000
v 1.000001 -0.500000 -7.500000
v 1.000001 7.000000 -2.999995
v 1.000001 0.500000 -7.499999
v 1.000001 6.000000 -2.999996
v 1.000001 -1.000000 -0.999999
v 1.000001 7.000000 2.000005
v 1.000001 1.000000 -0.999999
v 1.000001 6.000000 2.000003
v 1.000000 -1.000000 1.000002
v 1.000000 7.000000 3.500004
v 1.000000 1.000000 1.000002
v 1.000000 6.000000 4.000003
v 1.000001 4.571429 -3.857139
v -0.999999 4.571428 -3.857144
v -1.000000 4.571428 3.142855
v 1.000000 4.571428 3.142860
v 0.500000 -0.500000 8.500000
v -0.500001 -0.500000 8.499998
v 0.500000 0.500000 8.500000
v -0.500001 0.500000 8.499998
v -0.500000 4.571428 3.142856
v -0.500000 -0.500000 7.499999
v 0.500000 -0.500000 7.500000
v -0.500000 6.000000 4.000000
v 0.500000 6.000000 4.000002
v -0.500000 0.500000 7.499999
v 0.500000 0.500000 7.500000
v 1.000001 -1.000000 -9.000000
v 1.000001 1.000000 -8.999998
v 1.000001 -1.000000 -6.999999
v 1.000001 1.000000 -6.999999
v -0.999999 -1.000000 -9.000000
v -0.999999 1.000000 -9.000000
v -0.999999 -1.000000 -7.000000
v -0.999999 1.000000 -7.000000
v -0.499999 -0.500000 -8.500000
v 0.500001 -0.500000 -8.500000
v -0.499999 0.500000 -8.500000
v 0.500001 0.500000 -8.500000
v -0.499999 6.000000 -5.000000
v 0.500001 6.000000 -4.999998
v -0.499999 -0.500000 -7.500000
v 0.500001 -0.500000 -7.500000
v -0.499999 4.571428 -3.857143
v -0.499999 0.500000 -7.500000
v 0.500001 0.500000 -7.499999
v -0.499999 6.000000 -3.000002
v -0.500000 6.000000 1.999998
v -0.499999 1.000000 -1.000001
v -0.500000 1.000000 0.999999
v 0.500001 6.000000 -2.999996
v 0.500001 1.000000 -0.999999
v 0.500001 6.000000 2.000003
v 0.500000 1.000000 1.000001
v 0.500001 4.571429 -3.857139
v -0.499999 2.428572 -0.142859
v 0.500000 4.571428 3.142860
v 0.500001 2.428571 -0.142855
v -0.499999 -1.000000 -1.000001
v -0.500000 -1.000000 0.999998
v 0.500001 -1.000000 -0.999999
v 0.500000 -1.000000 1.000001
v 0.250000 1.000000 1.000001
v -0.250000 1.000000 0.999999
v 0.500000 -0.400000 -0.249999
v 0.500000 -0.400000 0.250001
v 0.500000 0.100000 -0.249999
v 0.500000 0.100000 0.250001
v -0.500000 0.100000 -0.250000
v -0.500000 0.100000 0.250000
v -0.500000 -0.400000 -0.250000
v -0.500000 -0.400000 0.250000
v 1.000000 -0.400000 -0.249999
v 1.000000 -0.400000 0.250001
v 1.000000 0.100000 -0.249999
v 1.000000 0.100000 0.250001
v -1.000000 0.100000 -0.250000
v -1.000000 0.100000 0.250000
v -1.000000 -0.400000 -0.250000
v -1.000000 -0.400000 0.250000
v 2.000000 -0.400000 -0.249999
v 2.000000 -0.400000 0.250001
v 2.000000 0.100000 -0.249999
v 2.000000 0.100000 0.250001
v -2.000000 0.100000 -0.250000
v -2.000000 0.100000 0.250000
v -2.000000 -0.400000 -0.250000
v -2.000000 -0.400000 0.250000
v 4.000000 -0.400000 -0.249999
v 4.000000 0.100000 -0.249999
v 2.000000 -0.400000 2.250001
v 2.000000 0.100000 2.250001
v 4.000000 0.100000 2.250001
v 4.000000 -0.400000 2.250001
v -4.000000 0.100000 0.250000
v -4.000000 -0.400000 0.250000
v -2.000000 -0.400000 -2.250000
v -2.000000 0.100000 -2.250000
v -3.999999 -0.400000 -2.250000
v -3.999999 0.100000 -2.250000
v -0.499999 7.000000 -5.000001
v 0.500001 7.000000 -4.999997
v 0.500000 7.000000 3.500003
v -0.500000 7.000000 3.500000
v -0.499999 7.000000 -4.000001
v 0.500001 7.000000 -3.999997
v 0.500000 7.000000 2.500003
v -0.500000 7.000000 2.500000
v -0.499999 7.000000 -3.000002
v -0.500000 7.000000 1.999998
v 0.500001 7.000000 -2.999996
v 0.500001 7.000000 2.000003
v 0.500000 10.000000 3.500003
v -0.500000 10.000000 3.500000
v 0.500000 10.000000 2.500003
v -0.500000 10.000000 2.500000
v 0.500000 11.000000 3.500003
v -0.500000 11.000000 3.500000
v 0.500000 11.000000 2.500003
v -0.500000 11.000000 2.500000
v 3.500000 10.000000 2.500003
v 3.500000 10.000000 3.500003
v 3.500000 11.000000 2.500003
v 3.500000 11.000000 3.500003
v 4.500000 10.000000 2.500003
v 4.500000 10.000000 3.500003
v 4.500000 11.000000 2.500003
v 4.500000 11.000000 3.500003
v -3.500000 10.000000 3.500000
v -3.500000 10.000000 2.500000
v -3.500000 11.000000 3.500000
v -3.500000 11.000000 2.500000
v -4.500000 10.000000 3.500000
v -4.500000 10.000000 2.500000
v -4.500000 11.000000 3.500000
v -4.500000 11.000000 2.500000
v 3.500000 10.000000 0.500003
v 3.500000 11.000000 0.500003
v 4.500000 10.000000 0.500003
v 4.500000 11.000000 0.500003
v -3.500000 11.000000 0.500000
v -3.500000 10.000000 0.500000
v -4.500000 11.000000 0.500000
v -4.500000 10.000000 0.500000
v -0.499999 8.000000 -5.000001
v 0.500001 8.000000 -4.999997
v -0.499999 8.000000 -4.000001
v 0.500001 8.000000 -3.999997
v -1.499999 8.000000 -6.000005
v 1.500001 8.000000 -5.999993
v -1.499999 8.000000 -3.000005
v 1.500001 8.000000 -2.999993
v -1.499999 9.000000 -6.000005
v 1.500001 9.000000 -5.999993
v -1.499999 9.000000 -3.000005
v 1.500001 9.000000 -2.999993
v -0.410327 -3.114180 4.885820
v -0.410328 -3.114180 11.114180
v -0.410327 3.114180 4.885819
v 0.410327 -3.114180 4.885820
v 0.410327 -3.114180 11.114181
v 0.410327 3.114180 4.885822
v 0.410327 3.114180 11.114181
v -0.410328 3.114180 11.114180
v -0.410326 -3.114180 -11.114180
v -0.410326 -3.114180 -4.885821
v -0.410326 3.114180 -11.114181
v 0.410328 -3.114180 -11.114178
v 0.410328 -3.114180 -4.885818
v 0.410329 3.114180 -11.114177
v 0.410328 3.114180 -4.885818
v -0.410326 3.114180 -4.885821
v 0.000000 -3.515859 4.484141
v -0.410327 -4.566133 8.000000
v -0.410327 -0.000000 3.433867
v 0.410327 -4.566133 8.000000
v 0.410328 -0.000000 3.433869
v -0.000001 -3.515859 11.515860
v 0.410327 -0.000000 12.566133
v -0.410328 -0.000000 12.566132
v 0.000000 3.515859 4.484142
v -0.410327 4.566133 7.999999
v 0.410327 4.566133 8.000003
v -0.000000 3.515859 11.515860
v -0.410327 -4.184961 8.000000
v -0.410327 -0.000000 3.815039
v 0.410327 -4.184961 8.000000
v 0.410327 -0.000000 3.815041
v 0.410327 -0.000000 12.184962
v -0.410328 -0.000000 12.184961
v -0.410327 4.184961 8.000000
v 0.410327 4.184961 8.000003
v 0.000000 -2.990860 5.009141
v 0.000000 2.990860 5.009141
v -0.000000 2.990860 10.990859
v -0.000001 -2.990860 10.990859
v -0.000001 -0.000000 12.016796
v -0.000000 4.016797 8.000000
v -0.000000 -4.016797 8.000000
v 0.000000 -0.000000 3.983203
v -0.000001 -0.000000 12.734298
v 0.000000 -0.000000 3.265704
v -0.000000 4.734296 8.000000
v -0.000000 -4.734296 8.000000
v 0.000001 -3.515859 -11.515859
v -0.410326 -4.566133 -8.000000
v -0.410326 -0.000000 -12.566133
v 0.410328 -4.566133 -7.999999
v 0.410329 -0.000000 -12.566132
v 0.000001 -3.515859 -4.484140
v 0.410328 -0.000000 -3.433865
v -0.410327 -0.000000 -3.433867
v 0.000002 3.515859 -11.515859
v -0.410326 4.566133 -8.000000
v 0.410328 4.566133 -7.999998
v 0.000001 3.515859 -4.484138
v -0.410326 -4.184961 -8.000000
v -0.410326 -0.000000 -12.184961
v 0.410328 -4.184961 -7.999999
v 0.410329 -0.000000 -12.184958
v 0.410328 -0.000000 -3.815037
v -0.410327 -0.000000 -3.815039
v -0.410326 4.184961 -8.000000
v 0.410328 4.184961 -7.999998
v 0.000001 -2.990860 -10.990859
v 0.000002 2.990860 -10.990859
v 0.000001 2.990860 -5.009139
v 0.000001 -2.990860 -5.009140
v 0.000001 -0.000000 -3.983202
v 0.000001 4.016797 -7.999999
v 0.000002 -0.000000 -12.016797
v 0.000001 -4.016797 -8.000000
v 0.000001 -0.000000 -3.265702
v 0.000002 -0.000000 -12.734299
v 0.000001 4.734296 -7.999999
v 0.000001 -4.734296 -8.000000
v -0.500000 -0.250000 7.749999
v -0.500000 -0.250000 8.249998
v -0.500000 0.250000 7.749999
v -0.500000 0.250000 8.249998
v 0.500000 0.250000 8.250000
v 0.500000 0.250000 7.750000
v 0.500000 -0.250000 7.750000
v 0.500000 -0.250000 8.250000
v 0.500001 -0.250000 -7.750000
v 0.500001 -0.250000 -8.250000
v 0.500001 0.250000 -7.750000
v 0.500001 0.250000 -8.250000
v -0.499999 -0.250000 -7.750000
v -0.499999 -0.250000 -8.250000
v -0.499999 0.250000 -7.750000
v -0.499999 0.250000 -8.250000
v -0.000001 -0.000000 12.016796
v -0.000000 2.990860 10.990859
v -0.000001 -2.990860 10.990859
v -0.000000 4.016797 8.000000
v 0.000000 2.990860 5.009141
v -0.000000 -4.016797 8.000000
v 0.000000 -2.990860 5.009141
v 0.000000 -0.000000 3.983204
v 0.000001 -0.000000 -3.983202
v 0.000001 2.990860 -5.009139
v 0.000001 -2.990860 -5.009140
v 0.000001 4.016797 -7.999999
v 0.000002 2.990860 -10.990859
v 0.000002 -0.000000 -12.016797
v 0.000001 -2.990860 -10.990859
v 0.000001 -4.016797 -8.000000
vn 1.000000 0.000000 0.000000
vn 0.000000 0.000000 -1.000000
vn 0.000000 0.000000 1.000000
vn 0.359100 -0.881900 0.305400
vn 0.359100 0.881900 0.305400
vn 0.359100 0.305400 -0.881900
vn -1.000000 -0.000000 -0.000000
vn -0.359100 0.305400 0.881900
vn 0.000000 0.536900 -0.843700
vn 0.000000 1.000000 -0.000000
vn -0.000000 0.633200 0.774000
vn 0.000000 -0.730700 -0.682700
vn 0.000000 -1.000000 0.000000
vn 0.000000 -0.514500 0.857500
vn -0.000000 0.447200 0.894400
vn -0.000000 -0.666800 0.745200
vn -0.000000 0.624700 0.780900
vn 0.000000 0.514500 -0.857500
vn 0.000000 -0.624700 -0.780900
vn 0.359100 0.303200 0.882700
vn 0.359100 0.882700 0.303200
vn 0.359100 -0.882700 0.303200
vn -0.359100 0.303200 -0.882700
vn -0.359100 -0.303200 -0.882700
vn 0.359100 -0.303200 -0.882700
vn 0.359100 0.303200 -0.882700
vn 0.359100 -0.882700 -0.303200
vn -0.359100 -0.882700 -0.303200
vn -0.359100 -0.882700 0.303200
vn -0.359100 0.882700 0.303200
vn -0.359100 0.882700 -0.303200
vn 0.359100 0.882700 -0.303200
vn 0.359100 -0.303200 0.882700
vn -0.359100 -0.303200 0.882700
vn -0.359100 0.303200 0.882700
vn -0.359100 -0.305400 0.881900
vn 0.359100 -0.305400 0.881900
vn 0.359100 0.305400 0.881900
vn 0.359100 -0.305400 -0.881900
vn -0.359100 -0.305400 -0.881900
vn -0.359100 0.305400 -0.881900
vn 0.359100 0.881900 -0.305400
vn -0.359100 0.881900 -0.305400
vn -0.359100 0.881900 0.305400
vn -0.359100 -0.881900 0.305400
vn -0.359100 -0.881900 -0.305400
vn 0.359100 -0.881900 -0.305400
usemtl Material
s off
f 95//1 155//1 156//1 97//1
f 81//2 83//2 25//2 2//2
f 43//1 44//1 27//1 3//1
f 62//3 64//3 28//3 4//3
f 280//4 252//4 9//4 254//4
f 279//5 260//5 13//5 259//5
f 278//6 257//6 12//6 253//6
f 250//7 10//7 210//7 261//7
f 277//8 260//8 14//8 256//8
f 252//1 8//1 212//1 263//1
f 248//4 220//4 17//4 222//4
f 247//5 228//5 21//5 227//5
f 246//6 225//6 20//6 221//6
f 226//7 19//7 203//7 235//7
f 245//8 228//8 22//8 224//8
f 219//7 15//7 201//7 230//7
f 30//7 29//7 4//7 28//7
f 83//9 85//9 26//9 25//9
f 35//7 39//7 42//7 38//7
f 5//7 24//7 33//7 32//7
f 38//7 79//7 78//7 35//7
f 49//1 51//1 55//1 53//1
f 154//10 156//10 155//10 153//10
f 52//1 50//1 54//1 56//1
f 26//1 6//1 46//1 48//1
f 41//7 37//7 59//7 30//7 28//7
f 66//1 70//1 283//1 281//1
f 37//7 41//7 40//7 36//7
f 97//2 92//2 154//2 156//2
f 74//1 75//1 51//1 49//1
f 64//11 68//11 41//11 28//11
f 26//1 48//1 57//1 47//1 25//1
f 58//7 33//7 24//7 23//7 34//7
f 65//12 70//12 30//12 59//12
f 67//2 71//2 44//2 43//2
f 92//7 154//7 153//7 91//7
f 89//3 34//3 31//3 86//3
f 61//13 67//13 43//13 3//13
f 96//1 99//1 95//1 102//1
f 57//14 48//14 95//14 99//14
f 104//13 103//13 105//13 106//13
f 52//1 56//1 27//1 44//1 60//1
f 4//13 29//13 66//13 62//13
f 29//2 30//2 70//2 66//2
f 41//15 56//15 54//15 147//15 148//15 40//15
f 65//1 68//1 64//1 70//1
f 63//7 71//7 286//7 285//7
f 27//11 56//11 69//11 63//11
f 3//3 27//3 63//3 61//3
f 80//13 86//13 31//13 1//13
f 72//1 73//1 75//1 74//1
f 77//7 76//7 78//7 79//7
f 2//13 45//13 87//13 81//13
f 34//16 89//16 88//16 58//16
f 47//3 90//3 87//3 45//3
f 23//9 24//9 84//9 82//9
f 1//2 23//2 82//2 80//2
f 23//13 82//13 89//13 34//13
f 89//1 86//1 293//1 295//1
f 81//7 87//7 289//7 290//7
f 88//1 89//1 82//1 84//1
f 6//2 26//2 85//2 84//2 24//2 5//2 145//2 146//2
f 102//1 97//1 101//1 98//1
f 115//2 123//2 121//2 113//2
f 100//17 102//17 95//17 91//17
f 100//18 92//18 97//18 102//18
f 106//1 105//1 109//1 110//1
f 110//13 109//13 117//13 118//13
f 116//13 124//13 123//13 115//13
f 114//3 122//3 124//3 116//3
f 113//10 121//10 122//10 114//10
f 112//10 120//10 119//10 111//10
f 144//10 139//10 130//10 129//10 142//10
f 140//7 139//7 144//7 143//7
f 130//3 139//3 140//3 132//3
f 141//13 131//13 132//13 140//13 143//13
f 141//2 143//2 144//2 142//2
f 131//7 129//7 142//7 141//7
f 128//10 136//10 137//10 134//10 127//10
f 91//3 95//3 155//3 153//3
f 33//3 91//3 153//3 32//3
f 145//7 149//7 191//7 189//7
f 46//3 155//3 95//3 48//3
f 156//2 50//2 52//2 97//2
f 92//2 37//2 36//2 154//2
f 154//10 36//10 40//10 148//10 152//10 151//10 147//10 54//10 50//10 156//10
f 146//10 150//10 149//10 145//10 5//10 32//10 153//10 155//10 46//10 6//10
f 97//13 92//13 91//13 95//13
f 159//2 163//2 167//2 165//2
f 161//10 163//10 164//10 162//10
f 158//3 157//3 161//3 162//3
f 160//13 158//13 173//13 174//13
f 159//2 160//2 164//2 163//2
f 166//13 165//13 169//13 170//13
f 163//10 161//10 168//10 167//10
f 157//13 159//13 165//13 166//13
f 161//3 157//3 166//3 168//3
f 170//1 169//1 171//1 172//1
f 168//3 166//3 170//3 172//3
f 167//10 168//10 172//10 171//10
f 178//7 180//7 187//7 188//7
f 173//3 175//3 179//3 177//3
f 158//3 162//3 175//3 173//3
f 164//2 160//2 174//2 176//2
f 162//10 164//10 176//10 175//10
f 178//7 177//7 179//7 180//7
f 174//13 173//13 177//13 178//13
f 180//10 176//10 185//10 187//10
f 175//10 176//10 180//10 179//10
f 181//2 182//2 184//2 183//2
f 185//2 186//2 188//2 187//2
f 169//13 165//13 181//13 183//13
f 171//1 169//1 183//1 184//1
f 174//13 178//13 188//13 186//13
f 176//1 174//1 186//1 185//1
f 167//10 171//10 184//10 182//10
f 165//7 167//7 182//7 181//7
f 192//13 190//13 194//13 196//13
f 146//2 145//2 189//2 190//2
f 150//1 146//1 190//1 192//1
f 149//3 150//3 192//3 191//3
f 193//7 195//7 199//7 197//7
f 191//13 192//13 196//13 195//13
f 189//13 191//13 195//13 193//13
f 190//13 189//13 193//13 194//13
f 197//10 199//10 200//10 198//10
f 194//2 193//2 197//2 198//2
f 196//1 194//1 198//1 200//1
f 195//3 196//3 200//3 199//3
f 105//2 103//2 93//2 96//2
f 98//1 96//1 102//1
f 63//7 69//7 101//7 71//7
f 94//14 98//14 101//14 65//14
f 93//7 100//7 91//7 88//7
f 90//16 47//16 57//16 99//16
f 69//14 68//14 65//14 101//14
f 60//12 44//12 71//12 101//12
f 101//19 97//19 52//19 60//19
f 90//7 99//7 85//7 83//7
f 99//19 88//19 84//19 85//19
f 94//7 100//7 93//7
f 94//7 65//7 92//7 100//7
f 58//14 88//14 91//14 33//14
f 59//19 37//19 92//19 65//19
f 96//19 93//19 88//19 99//19
f 104//3 106//3 98//3 94//3
f 94//7 114//7 116//7 104//7
f 112//3 110//3 118//3 120//3
f 98//1 112//1 111//1 96//1
f 103//7 115//7 113//7 93//7
f 98//1 106//1 110//1 112//1
f 104//7 116//7 115//7 103//7
f 93//7 113//7 114//7 94//7
f 96//1 111//1 109//1 105//1
f 111//2 119//2 117//2 109//2
f 124//13 132//13 131//13 123//13
f 119//2 127//2 125//2 117//2
f 120//3 118//3 126//3 128//3
f 121//10 129//10 130//10 122//10
f 123//2 131//2 129//2 121//2
f 122//3 130//3 132//3 124//3
f 120//10 128//10 127//10 119//10
f 118//13 117//13 125//13 126//13
f 127//2 134//2 133//2 125//2
f 126//7 135//7 136//7 128//7
f 138//1 133//1 134//1 137//1
f 126//13 125//13 133//13 138//13 135//13
f 135//3 138//3 137//3 136//3
f 152//7 148//7 158//7 160//7
f 151//2 152//2 160//2 159//2
f 147//1 151//1 159//1 157//1
f 148//3 147//3 157//3 158//3
f 244//20 237//20 204//20 232//20
f 224//7 22//7 208//7 234//7
f 220//1 16//1 204//1 231//1
f 218//7 18//7 202//7 229//7
f 227//1 21//1 207//1 236//1
f 223//1 17//1 205//1 233//1
f 221//1 20//1 206//1 232//1
f 259//1 13//1 215//1 268//1
f 255//1 9//1 213//1 265//1
f 253//1 12//1 214//1 264//1
f 251//7 7//7 209//7 262//7
f 258//7 11//7 211//7 267//7
f 256//7 14//7 216//7 266//7
f 243//21 231//21 204//21 237//21
f 242//22 238//22 206//22 236//22
f 241//23 240//23 202//23 234//23
f 276//21 263//21 212//21 269//21
f 275//20 269//20 212//20 264//20
f 274//22 270//22 214//22 268//22
f 273//23 272//23 210//23 266//23
f 239//24 241//24 234//24 208//24
f 207//25 233//25 241//25 239//25
f 233//26 205//26 240//26 241//26
f 239//27 242//27 236//27 207//27
f 208//28 235//28 242//28 239//28
f 235//29 203//29 238//29 242//29
f 229//30 243//30 237//30 201//30
f 202//31 240//31 243//31 229//31
f 240//32 205//32 231//32 243//32
f 16//1 221//1 232//1 204//1
f 21//1 223//1 233//1 207//1
f 20//1 227//1 236//1 206//1
f 15//7 218//7 229//7 201//7
f 17//1 220//1 231//1 205//1
f 18//7 224//7 234//7 202//7
f 238//33 244//33 232//33 206//33
f 203//34 230//34 244//34 238//34
f 230//35 201//35 237//35 244//35
f 19//7 219//7 230//7 203//7
f 222//36 245//36 224//36 18//36
f 17//37 223//37 245//37 222//37
f 223//38 21//38 228//38 245//38
f 22//7 226//7 235//7 208//7
f 217//39 246//39 221//39 16//39
f 15//40 219//40 246//40 217//40
f 219//41 19//41 225//41 246//41
f 225//42 247//42 227//42 20//42
f 19//43 226//43 247//43 225//43
f 226//44 22//44 228//44 247//44
f 218//45 248//45 222//45 18//45
f 15//46 217//46 248//46 218//46
f 217//47 16//47 220//47 248//47
f 271//24 273//24 266//24 216//24
f 215//25 265//25 273//25 271//25
f 265//26 213//26 272//26 273//26
f 271//27 274//27 268//27 215//27
f 216//28 267//28 274//28 271//28
f 267//29 211//29 270//29 274//29
f 270//33 275//33 264//33 214//33
f 211//34 262//34 275//34 270//34
f 262//35 209//35 269//35 275//35
f 261//30 276//30 269//30 209//30
f 210//31 272//31 276//31 261//31
f 272//32 213//32 263//32 276//32
f 10//7 256//7 266//7 210//7
f 14//7 258//7 267//7 216//7
f 11//7 251//7 262//7 211//7
f 8//1 253//1 264//1 212//1
f 13//1 255//1 265//1 215//1
f 12//1 259//1 268//1 214//1
f 9//1 252//1 263//1 213//1
f 254//36 277//36 256//36 10//36
f 9//37 255//37 277//37 254//37
f 255//38 13//38 260//38 277//38
f 7//7 250//7 261//7 209//7
f 249//39 278//39 253//39 8//39
f 7//40 251//40 278//40 249//40
f 251//41 11//41 257//41 278//41
f 257//42 279//42 259//42 12//42
f 11//43 258//43 279//43 257//43
f 258//44 14//44 260//44 279//44
f 250//45 280//45 254//45 10//45
f 7//46 249//46 280//46 250//46
f 249//47 8//47 252//47 280//47
f 282//13 281//13 287//13 288//13
f 62//1 66//1 281//1 282//1
f 70//1 64//1 284//1 283//1
f 64//1 62//1 282//1 284//1
f 283//10 284//10 285//10 286//10
f 71//7 67//7 287//7 286//7
f 61//7 63//7 285//7 288//7
f 67//7 61//7 288//7 287//7
f 281//2 283//2 286//2 287//2
f 282//3 288//3 285//3 284//3
f 291//10 292//10 296//10 295//10
f 87//7 90//7 291//7 289//7
f 90//7 83//7 292//7 291//7
f 83//7 81//7 290//7 292//7
f 290//13 289//13 293//13 294//13
f 82//1 89//1 295//1 296//1
f 80//1 82//1 296//1 294//1
f 86//1 80//1 294//1 293//1
f 289//3 291//3 295//3 293//3
f 290//2 294//2 296//2 292//2
f 307//7 305//7 306//7 308//7 309//7 310//7 311//7 312//7
f 299//7 297//7 298//7 300//7 301//7 304//7 303//7 302//7
f 273//1 272//1 276//1 269//1 275//1 270//1 274//1 271//1
f 241//1 240//1 243//1 237//1 244//1 238//1 242//1 239//1
l 33 48
l 37 52
l 59 60
l 98 107
l 108 94
l 106 53
